<mxfile host="app.diagrams.net" agent="Mozilla/5.0 (Windows NT 10.0; Win64; x64) AppleWebKit/537.36 (KHTML, like Gecko) Chrome/134.0.0.0 Safari/537.36" version="26.2.6">
  <diagram name="Page-1" id="WAyI3i5F-EbYmVvy1im-">
    <mxGraphModel dx="1428" dy="881" grid="1" gridSize="10" guides="1" tooltips="1" connect="1" arrows="1" fold="1" page="1" pageScale="1" pageWidth="827" pageHeight="1169" math="0" shadow="0">
      <root>
        <mxCell id="0" />
        <mxCell id="1" parent="0" />
        <mxCell id="dFOPuMVijuqsIKWC9sMa-1" value="HOME" style="rounded=0;whiteSpace=wrap;html=1;fillColor=#121212;fontColor=#FFFFFF;fontStyle=1" vertex="1" parent="1">
          <mxGeometry x="320" y="60" width="120" height="60" as="geometry" />
        </mxCell>
        <mxCell id="dFOPuMVijuqsIKWC9sMa-3" value="PRODUCTS" style="rounded=0;whiteSpace=wrap;html=1;fillColor=#007FFF;fontColor=#FFFFFF;fontStyle=1;strokeColor=none;" vertex="1" parent="1">
          <mxGeometry x="160" y="160" width="120" height="60" as="geometry" />
        </mxCell>
        <mxCell id="dFOPuMVijuqsIKWC9sMa-4" value="ORDER" style="rounded=0;whiteSpace=wrap;html=1;fillColor=#007FFF;fontColor=#FFFFFF;fontStyle=1;strokeColor=none;" vertex="1" parent="1">
          <mxGeometry x="320" y="160" width="120" height="60" as="geometry" />
        </mxCell>
        <mxCell id="dFOPuMVijuqsIKWC9sMa-5" value="ABOUT" style="rounded=0;whiteSpace=wrap;html=1;fillColor=#007FFF;fontColor=#FFFFFF;fontStyle=1;strokeColor=none;" vertex="1" parent="1">
          <mxGeometry x="480" y="160" width="120" height="60" as="geometry" />
        </mxCell>
        <mxCell id="dFOPuMVijuqsIKWC9sMa-6" value="" style="endArrow=none;html=1;rounded=0;strokeWidth=3;strokeColor=#007FFF;entryX=0.5;entryY=1;entryDx=0;entryDy=0;exitX=0.5;exitY=0;exitDx=0;exitDy=0;" edge="1" parent="1" source="dFOPuMVijuqsIKWC9sMa-4" target="dFOPuMVijuqsIKWC9sMa-1">
          <mxGeometry width="50" height="50" relative="1" as="geometry">
            <mxPoint x="440" y="150" as="sourcePoint" />
            <mxPoint x="440" y="430" as="targetPoint" />
          </mxGeometry>
        </mxCell>
        <mxCell id="dFOPuMVijuqsIKWC9sMa-7" value="" style="endArrow=none;html=1;rounded=0;strokeWidth=3;strokeColor=#007FFF;" edge="1" parent="1">
          <mxGeometry width="50" height="50" relative="1" as="geometry">
            <mxPoint x="220" y="140" as="sourcePoint" />
            <mxPoint x="540" y="140" as="targetPoint" />
          </mxGeometry>
        </mxCell>
        <mxCell id="dFOPuMVijuqsIKWC9sMa-8" value="" style="endArrow=none;html=1;rounded=0;strokeWidth=3;strokeColor=#007FFF;entryX=0.5;entryY=0;entryDx=0;entryDy=0;" edge="1" parent="1" target="dFOPuMVijuqsIKWC9sMa-3">
          <mxGeometry width="50" height="50" relative="1" as="geometry">
            <mxPoint x="220" y="140" as="sourcePoint" />
            <mxPoint x="550" y="150" as="targetPoint" />
          </mxGeometry>
        </mxCell>
        <mxCell id="dFOPuMVijuqsIKWC9sMa-9" value="" style="endArrow=none;html=1;rounded=0;strokeWidth=3;strokeColor=#007FFF;entryX=0.5;entryY=0;entryDx=0;entryDy=0;" edge="1" parent="1" target="dFOPuMVijuqsIKWC9sMa-5">
          <mxGeometry width="50" height="50" relative="1" as="geometry">
            <mxPoint x="540" y="140" as="sourcePoint" />
            <mxPoint x="620" y="170" as="targetPoint" />
          </mxGeometry>
        </mxCell>
        <mxCell id="dFOPuMVijuqsIKWC9sMa-11" value="MENU" style="rounded=0;whiteSpace=wrap;html=1;fillColor=#00BE00;fontColor=#FFFFFF;fontStyle=1;strokeColor=none;" vertex="1" parent="1">
          <mxGeometry x="210" y="280" width="120" height="60" as="geometry" />
        </mxCell>
        <mxCell id="dFOPuMVijuqsIKWC9sMa-12" value="" style="endArrow=none;html=1;rounded=0;strokeWidth=3;strokeColor=#00CC00;exitX=0.25;exitY=1;exitDx=0;exitDy=0;" edge="1" parent="1" source="dFOPuMVijuqsIKWC9sMa-3">
          <mxGeometry width="50" height="50" relative="1" as="geometry">
            <mxPoint x="240" y="100" as="sourcePoint" />
            <mxPoint x="190" y="390" as="targetPoint" />
          </mxGeometry>
        </mxCell>
        <mxCell id="dFOPuMVijuqsIKWC9sMa-13" value="" style="endArrow=none;html=1;rounded=0;strokeWidth=3;strokeColor=#00CC00;exitX=0;exitY=0.5;exitDx=0;exitDy=0;" edge="1" parent="1" source="dFOPuMVijuqsIKWC9sMa-11">
          <mxGeometry width="50" height="50" relative="1" as="geometry">
            <mxPoint x="200" y="230" as="sourcePoint" />
            <mxPoint x="190" y="310" as="targetPoint" />
          </mxGeometry>
        </mxCell>
        <mxCell id="dFOPuMVijuqsIKWC9sMa-14" value="EXAMPLES" style="rounded=0;whiteSpace=wrap;html=1;fillColor=#00BE00;fontColor=#FFFFFF;fontStyle=1;strokeColor=none;" vertex="1" parent="1">
          <mxGeometry x="210" y="360" width="120" height="60" as="geometry" />
        </mxCell>
        <mxCell id="dFOPuMVijuqsIKWC9sMa-15" value="" style="endArrow=none;html=1;rounded=0;strokeWidth=3;strokeColor=#00CC00;exitX=0;exitY=0.5;exitDx=0;exitDy=0;" edge="1" parent="1" source="dFOPuMVijuqsIKWC9sMa-14">
          <mxGeometry width="50" height="50" relative="1" as="geometry">
            <mxPoint x="200" y="310" as="sourcePoint" />
            <mxPoint x="190" y="390" as="targetPoint" />
          </mxGeometry>
        </mxCell>
        <mxCell id="dFOPuMVijuqsIKWC9sMa-18" value="FORM" style="rounded=0;whiteSpace=wrap;html=1;fillColor=#00BE00;fontColor=#FFFFFF;fontStyle=1;strokeColor=none;" vertex="1" parent="1">
          <mxGeometry x="370" y="280" width="120" height="60" as="geometry" />
        </mxCell>
        <mxCell id="dFOPuMVijuqsIKWC9sMa-19" value="" style="endArrow=none;html=1;rounded=0;strokeWidth=3;strokeColor=#00CC00;exitX=0.25;exitY=1;exitDx=0;exitDy=0;" edge="1" parent="1">
          <mxGeometry width="50" height="50" relative="1" as="geometry">
            <mxPoint x="350" y="220" as="sourcePoint" />
            <mxPoint x="350" y="380" as="targetPoint" />
          </mxGeometry>
        </mxCell>
        <mxCell id="dFOPuMVijuqsIKWC9sMa-20" value="" style="endArrow=none;html=1;rounded=0;strokeWidth=3;strokeColor=#00CC00;exitX=0;exitY=0.5;exitDx=0;exitDy=0;" edge="1" parent="1" source="dFOPuMVijuqsIKWC9sMa-18">
          <mxGeometry width="50" height="50" relative="1" as="geometry">
            <mxPoint x="360" y="230" as="sourcePoint" />
            <mxPoint x="350" y="310" as="targetPoint" />
          </mxGeometry>
        </mxCell>
        <mxCell id="dFOPuMVijuqsIKWC9sMa-25" value="ABOUT MESSAGE" style="rounded=0;whiteSpace=wrap;html=1;fillColor=#00BE00;fontColor=#FFFFFF;fontStyle=1;strokeColor=none;" vertex="1" parent="1">
          <mxGeometry x="530" y="280" width="120" height="60" as="geometry" />
        </mxCell>
        <mxCell id="dFOPuMVijuqsIKWC9sMa-26" value="" style="endArrow=none;html=1;rounded=0;strokeWidth=3;strokeColor=#00CC00;exitX=0.25;exitY=1;exitDx=0;exitDy=0;" edge="1" parent="1">
          <mxGeometry width="50" height="50" relative="1" as="geometry">
            <mxPoint x="510" y="220" as="sourcePoint" />
            <mxPoint x="510" y="460" as="targetPoint" />
          </mxGeometry>
        </mxCell>
        <mxCell id="dFOPuMVijuqsIKWC9sMa-27" value="" style="endArrow=none;html=1;rounded=0;strokeWidth=3;strokeColor=#00CC00;exitX=0;exitY=0.5;exitDx=0;exitDy=0;" edge="1" parent="1" source="dFOPuMVijuqsIKWC9sMa-25">
          <mxGeometry width="50" height="50" relative="1" as="geometry">
            <mxPoint x="520" y="230" as="sourcePoint" />
            <mxPoint x="510" y="310" as="targetPoint" />
          </mxGeometry>
        </mxCell>
        <mxCell id="dFOPuMVijuqsIKWC9sMa-28" value="DETAILS" style="rounded=0;whiteSpace=wrap;html=1;fillColor=#00BE00;fontColor=#FFFFFF;fontStyle=1;strokeColor=none;" vertex="1" parent="1">
          <mxGeometry x="530" y="360" width="120" height="60" as="geometry" />
        </mxCell>
        <mxCell id="dFOPuMVijuqsIKWC9sMa-29" value="" style="endArrow=none;html=1;rounded=0;strokeWidth=3;strokeColor=#00CC00;exitX=0;exitY=0.5;exitDx=0;exitDy=0;" edge="1" parent="1" source="dFOPuMVijuqsIKWC9sMa-28">
          <mxGeometry width="50" height="50" relative="1" as="geometry">
            <mxPoint x="520" y="310" as="sourcePoint" />
            <mxPoint x="510" y="390" as="targetPoint" />
          </mxGeometry>
        </mxCell>
        <mxCell id="dFOPuMVijuqsIKWC9sMa-30" value="MINI-GAME" style="rounded=0;whiteSpace=wrap;html=1;fillColor=#00BE00;fontColor=#FFFFFF;fontStyle=1;strokeColor=none;" vertex="1" parent="1">
          <mxGeometry x="530" y="430" width="120" height="60" as="geometry" />
        </mxCell>
        <mxCell id="dFOPuMVijuqsIKWC9sMa-31" value="" style="endArrow=none;html=1;rounded=0;strokeWidth=3;strokeColor=#00CC00;exitX=0;exitY=0.5;exitDx=0;exitDy=0;" edge="1" parent="1" source="dFOPuMVijuqsIKWC9sMa-30">
          <mxGeometry width="50" height="50" relative="1" as="geometry">
            <mxPoint x="520" y="380" as="sourcePoint" />
            <mxPoint x="510" y="460" as="targetPoint" />
          </mxGeometry>
        </mxCell>
        <mxCell id="dFOPuMVijuqsIKWC9sMa-34" value="PAYMENT" style="rounded=0;whiteSpace=wrap;html=1;fillColor=#00BE00;fontColor=#FFFFFF;fontStyle=1;strokeColor=none;" vertex="1" parent="1">
          <mxGeometry x="370" y="350" width="120" height="60" as="geometry" />
        </mxCell>
        <mxCell id="dFOPuMVijuqsIKWC9sMa-35" value="" style="endArrow=none;html=1;rounded=0;strokeWidth=3;strokeColor=#00CC00;exitX=0;exitY=0.5;exitDx=0;exitDy=0;" edge="1" parent="1" source="dFOPuMVijuqsIKWC9sMa-34">
          <mxGeometry width="50" height="50" relative="1" as="geometry">
            <mxPoint x="360" y="300" as="sourcePoint" />
            <mxPoint x="350" y="380" as="targetPoint" />
          </mxGeometry>
        </mxCell>
      </root>
    </mxGraphModel>
  </diagram>
</mxfile>
